# xmcd
#
# Track frame offsets: 
#        150
#        13818
#        31582
#        53384
#        80811
#        97271
#        109473
#        120858
#        135805
#        153119
#        170319
#        188522
#        209715
#
# Disc length: 2987 seconds
#
# Revision: 0
# Processed by: cddbd v1.5.2PL0 Copyright (c) Steve Scherf et al.
# Submitted via: ExactAudioCopy v1.3
#
DISCID=9b0ba90d
DTITLE=Barrelhouse Chuck and Kim Wilson's - Driftin' From Town To Town
DYEAR=2013
DGENRE=Blues
TTITLE0=The Big Push
TTITLE1=Driftin' From Town To Town
TTITLE2=I M Leaving You
TTITLE3=Stockyard Blues
TTITLE4=Lucky Lou
TTITLE5=Thirty Days
TTITLE6=Flat Foot Sam
TTITLE7=K&C Boogie
TTITLE8=You Can't Live Long
TTITLE9=She S Got A Thing Going On
TTITLE10=Three Hundred Pounds Of Joy
TTITLE11=Anna Lee
TTITLE12=Time Is Tight
EXTD=
EXTT0=
EXTT1=
EXTT2=
EXTT3=
EXTT4=
EXTT5=
EXTT6=
EXTT7=
EXTT8=
EXTT9=
EXTT10=
EXTT11=
EXTT12=
PLAYORDER=
